.
 
http://www.scenetime.com    -   SceneTime [ We been having it ] !!!


How come you press harder on a remote control when you know the battery is dead? so you better seed to get speed ;)

        Seed back for speed


...................................NFO:.................................................








































          
          
              
              
                    
                    
                    
                    

Tactical.Force.2011.BRRip.Xvid.AC3-SiC

Poster:
[img]http://leetleech.org/images/31021501271173718277.png[/img]

IMDB Link:
http://www.imdb.com/title/tt1458915/

Description:
A training exercise for the LAPD SWAT Team goes terribly wrong when they find themselves pitted against two rival gangs while trapped in an abandoned Hangar, armed with nothing but blanks.  

MediaInfo:
General
Complete name                    : Tactical.Force.2011.BRRip.Xvid.AC3-SiC.avi
Format                           : AVI
Format/Info                      : Audio Video Interleave
File size                        : 1.29 GiB
Duration                         : 1h 28mn
Overall bit rate                 : 2 093 Kbps

Video
ID                               : 0
Format                           : MPEG-4 Visual
Format profile                   : Advanced Simple@L5
Format settings, BVOP            : Yes
Format settings, QPel            : No
Format settings, GMC             : No warppoints
Format settings, Matrix          : Default (H.263)
Muxing mode                      : Packed bitstream
Codec ID                         : XVID
Codec ID/Hint                    : XviD
Duration                         : 1h 28mn
Bit rate                         : 1 701 Kbps
Width                            : 720 pixels
Height                           : 400 pixels
Display aspect ratio             : 16:9
Frame rate                       : 23.976 fps
Resolution                       : 8 bits
Colorimetry                      : 4:2:0
Scan type                        : Progressive
Bits/(Pixel*Frame)               : 0.246
Stream size                      : 1.05 GiB (81%)
Writing library                  : XviD 64

Audio
ID                               : 1
Format                           : AC-3
Format/Info                      : Audio Coding 3
Format_Settings_ModeExtension    : CM (complete main)
Codec ID                         : 2000
Duration                         : 1h 28mn
Bit rate mode                    : Constant
Bit rate                         : 384 Kbps
Channel(s)                       : 6 channels
Channel positions                : Front: L C R, Side: L R, LFE
Sampling rate                    : 48.0 KHz
Stream size                      : 243 MiB (18%)
Alignment                        : Aligned on interleaves
Interleave, duration             : 64 ms (1.53 video frames)
Interleave, preload duration     : 192 ms
Title                            : 6ch English

Screenshots:
[img]http://leetleech.org/images/61586366522672580108.png[/img]
[img]http://leetleech.org/images/29731862714968997518.png[/img]
[img]http://leetleech.org/images/11323387301831356335.png[/img]
[img]http://leetleech.org/images/99152056287327110225.png[/img]
[img]http://leetleech.org/images/64108381013955490352.png[/img]

Note :   N/A 

Source : BluRay-CHD Thanks!!!

Encoder: Bezauk

Enjoy!

Respects to CaptainHomey, Cyanide, CM8, Rx, THC, ELEKTRI4KA, 
Killerhz, PA, YeFsTe, BoxSlots, MrRep and everyone in the struggle...